<!-- icon666.com - MILLIONS OF FREE VECTOR ICONS --><svg id="Capa_1" enable-background="new 0 0 512 512" viewBox="0 0 512 512" xmlns="http://www.w3.org/2000/svg"><g><g><g><g><path d="m316.666 131.721-19.27-19.372c-12.716-12.785-33.335-12.785-46.051 0-23.284 23.409-43.141 49.957-59.687 78.572v160.616h45.477c48.047-24.228 85.426-66.798 102.978-118.52 12.043-35.489 2.927-74.78-23.447-101.296z" fill="#b9f0ff"></path><path d="m191.658 190.921c-.057-.013.056.014 0 0-8.817 16.783-26.402 28.24-46.559 28.24-21.237 0-40.454 8.682-54.343 22.703-13.838 13.968-22.388 33.234-22.361 54.512.054 42.593 35.723 77.29 78.089 77.009 32.548-.216 63.324-8.067 90.652-21.847v-38.385c-31.007-36.605-45.478-79.299-45.478-122.232z" fill="#7ce3ff"></path></g><path d="m435.296 334.851h-192.953v140.704c12.341 8.527 27.273 13.523 43.38 13.523h149.573c42.362 0 76.704-34.525 76.704-77.114s-34.342-77.113-76.704-77.113z" fill="#fce3a0"></path><g><path d="m414.265 244.069c-33.176-26.488-81.425-20.92-107.769 12.429-13.766 17.427-29.927 32.242-47.822 44.153-6.93 4.612-14.124 8.781-21.538 12.501l-34.13 22.141v140.261h39.338c20.794-5.861 41.055-13.579 60.411-23.081 47.908-23.518 90.744-58.119 123.875-100.061 26.344-33.35 20.808-81.857-12.365-108.343z" fill="#ffb5c0"></path><path d="m204.569 395.482c-.985-30.72 10.809-60.573 32.566-82.329-28.145 14.121-59.503 21.698-92.037 21.698h-68.394c-42.362 0-76.704 34.525-76.704 77.114s34.342 77.114 76.704 77.114h68.394c32.79 0 65.634-4.613 97.244-13.523-23.147-20.356-36.789-49.377-37.773-80.074z" fill="#ff8e9e"></path></g></g><g><path d="m468.166 324.469c-4.308-2.637-9.032-4.661-14.049-5.953-1.292-5.018-3.316-9.742-5.953-14.05-3.211-5.246-10.727-5.246-13.937 0-2.637 4.308-4.661 9.032-5.953 14.05-5.017 1.292-9.741 3.316-14.049 5.953-2.623 1.605-3.934 4.287-3.934 6.969s1.311 5.363 3.934 6.969c4.308 2.637 9.034 4.67 14.052 5.962 1.292 5.017 3.314 9.732 5.951 14.04 3.21 5.246 10.727 5.246 13.937 0 2.636-4.308 4.658-9.023 5.951-14.04 5.017-1.292 9.744-3.326 14.052-5.962 5.243-3.211 5.244-10.728-.002-13.938z" fill="#b9f0ff"></path><path d="m100.709 243.319-9.953-1.454-4.451-9.07c-3.439-7.007-13.414-7.047-16.872 0l-4.451 9.07-9.953 1.454c-7.716 1.128-10.797 10.663-5.214 16.136l7.202 7.06-1.7 9.969c-1.318 7.728 6.748 13.621 13.65 9.973l8.903-4.707 8.903 4.707c6.901 3.649 14.968-2.245 13.649-9.973l-1.7-9.969 7.202-7.06c5.582-5.473 2.501-15.009-5.215-16.136z" fill="#fce3a0"></path><path d="m344.509 143.316c-3.413 0-6.581 1.047-9.199 2.838-2 1.368-4.62 1.368-6.62 0-2.618-1.791-5.785-2.838-9.199-2.838-8.998 0-16.292 7.281-16.292 16.262 0 9.249 6.515 15.789 12.191 20.453 3.702 3.042 6.643 4.99 11.588 8.169 3.057 1.966 6.985 1.965 10.042-.001 5.055-3.25 7.878-5.12 11.587-8.168 5.676-4.664 12.191-11.204 12.191-20.453.002-8.981-7.292-16.262-16.289-16.262z" fill="#ff8e9e"></path></g><g fill="#313d40"><path d="m191.577 359.595c-4.268 0-7.726 3.459-7.726 7.726v12.362c0 4.268 3.459 7.726 7.726 7.726s7.726-3.459 7.726-7.726v-12.362c.001-4.268-3.458-7.726-7.726-7.726z"></path><path d="m320.244 359.595c-4.268 0-7.726 3.459-7.726 7.726v12.362c0 4.268 3.459 7.726 7.726 7.726s7.726-3.459 7.726-7.726v-12.362c.001-4.268-3.458-7.726-7.726-7.726z"></path><path d="m285.882 379.328c-4.268 0-7.726 3.459-7.726 7.726 0 3.951-3.214 7.165-7.165 7.165-3.952 0-7.166-3.214-7.166-7.165 0-4.268-3.459-7.726-7.726-7.726-4.268 0-7.726 3.459-7.726 7.726 0 3.951-3.214 7.165-7.165 7.165-3.952 0-7.166-3.214-7.166-7.165 0-4.268-3.459-7.726-7.726-7.726-4.268 0-7.726 3.459-7.726 7.726 0 12.472 10.147 22.618 22.619 22.618 5.7 0 10.91-2.124 14.892-5.616 3.982 3.492 9.192 5.616 14.892 5.616 12.472 0 22.618-10.146 22.618-22.618-.002-4.267-3.461-7.726-7.729-7.726z"></path></g></g><g fill="#b9f0ff"><path d="m162.378 154.27h-6.181c-4.268 0-7.726 3.459-7.726 7.726s3.459 7.726 7.726 7.726h6.181c4.268 0 7.726-3.459 7.726-7.726s-3.458-7.726-7.726-7.726z"></path><path d="m127.352 154.27h-6.181c-4.268 0-7.726 3.459-7.726 7.726s3.459 7.726 7.726 7.726h6.181c4.268 0 7.726-3.459 7.726-7.726s-3.458-7.726-7.726-7.726z"></path><path d="m141.775 168.692c-4.268 0-7.726 3.459-7.726 7.726v6.181c0 4.268 3.459 7.726 7.726 7.726 4.268 0 7.726-3.459 7.726-7.726v-6.181c0-4.267-3.459-7.726-7.726-7.726z"></path><path d="m141.775 155.3c4.268 0 7.726-3.459 7.726-7.726v-6.181c0-4.268-3.459-7.726-7.726-7.726-4.268 0-7.726 3.459-7.726 7.726v6.181c-.001 4.267 3.458 7.726 7.726 7.726z"></path></g><g fill="#fce3a0"><path d="m295.289 43.525h-6.181c-4.268 0-7.726 3.459-7.726 7.726s3.459 7.726 7.726 7.726h6.181c4.268 0 7.726-3.459 7.726-7.726s-3.459-7.726-7.726-7.726z"></path><path d="m260.263 43.525h-6.181c-4.268 0-7.726 3.459-7.726 7.726s3.459 7.726 7.726 7.726h6.181c4.268 0 7.726-3.459 7.726-7.726s-3.459-7.726-7.726-7.726z"></path><path d="m274.685 57.948c-4.268 0-7.726 3.459-7.726 7.726v6.181c0 4.268 3.459 7.726 7.726 7.726s7.726-3.459 7.726-7.726v-6.181c0-4.268-3.458-7.726-7.726-7.726z"></path><path d="m274.685 44.555c4.268 0 7.726-3.459 7.726-7.726v-6.181c0-4.268-3.459-7.726-7.726-7.726s-7.726 3.459-7.726 7.726v6.181c0 4.268 3.459 7.726 7.726 7.726z"></path></g><g fill="#ffb5c0"><path d="m472.101 209.385h-6.181c-4.268 0-7.726 3.459-7.726 7.726s3.459 7.726 7.726 7.726h6.181c4.268 0 7.726-3.459 7.726-7.726s-3.459-7.726-7.726-7.726z"></path><path d="m437.074 209.385h-6.181c-4.268 0-7.726 3.459-7.726 7.726s3.459 7.726 7.726 7.726h6.181c4.268 0 7.726-3.459 7.726-7.726s-3.458-7.726-7.726-7.726z"></path><path d="m451.497 223.808c-4.268 0-7.726 3.459-7.726 7.726v6.181c0 4.268 3.459 7.726 7.726 7.726s7.726-3.459 7.726-7.726v-6.181c0-4.267-3.458-7.726-7.726-7.726z"></path><path d="m451.497 210.415c4.268 0 7.726-3.459 7.726-7.726v-6.181c0-4.268-3.459-7.726-7.726-7.726s-7.726 3.459-7.726 7.726v6.181c0 4.268 3.458 7.726 7.726 7.726z"></path></g></g></svg>